Coordinates
version=1
nRows=4
nColumns=65
inDegrees=yes

Units are S.I. units (second, meters, Newtons, ...)
If the header above contains a line with 'inDegrees', this indicates whether rotational values are in degrees (yes) or radians (no).

endheader
time	pelvis_tilt	pelvis_list	pelvis_rotation	pelvis_tx	pelvis_ty	pelvis_tz	hip_flexion_r	hip_adduction_r	hip_rotation_r	knee_angle_r	knee_flexion_r_beta	hip_flexion_l	hip_adduction_l	hip_rotation_l	knee_flexion_l	knee_flexion_l_beta	L5_S1_Flex_Ext	L5_S1_Lat_Bending	L5_S1_axial_rotation	L1_T12_Flex_Ext	L1_T12_Lat_Bending	L1_T12_axial_rotation	C7_T1_Flex_Ext	C7_T1_Lat_Bending	C7_T1_axial_rotation	C1_Skull_Flex_Ext	C1_Skull_Lat_Bending	C1_Skull_axial_rotation	stnclv_protraction_r	stnclv_elevation_r	arm_flex_r	arm_add_r	arm_rot_r	stnclv_protraction_l	stnclv_elevation_l	arm_flex_l	arm_add_l	arm_rot_l	elbow_flex_r	pro_sup_r	wrist_flex_r	wrist_dev_r	elbow_flex_l	pro_sup_l	wrist_flex_l	wrist_dev_l	ankle_angle_r	subtalar_angle_r	ankle_internal_rotation_r	chopart_flexion_r	chopart_inversion_r	chopart_internal_rotation_r	metatarsophalangeal_flexion_r	metatarsophalangeal_inversion_r	metatarsophalangeal_internal_rotation_r	ankle_flexion_l	ankle_inversion_l	ankle_internal_rotation_l	chopart_flexion_l	chopart_inversion_l	chopart_internal_rotation_l	metatarsophalangeal_flexion_l	metatarsophalangeal_inversion_l	metatarsophalangeal_internal_rotation_l
      5.04500000	     -7.55519752	     11.42956963	    219.25309475	      2.47794163	      0.69091108	     -0.48712564	     46.79130890	    -29.86352704	     16.11934968	     28.51660378	      0.49770863	     70.32710830	     -1.95234696	    -10.60994572	    119.40266202	      2.08396959	    -39.11792295	      9.45888454	     -4.67218092	     -9.77433804	     11.28297107	     -4.67218092	      0.00000000	      0.00000000	      0.00000000	      0.00000000	      0.00000000	      0.00000000	      0.34307899	      2.24908286	    -21.12287424	    -27.91697528	    -32.59962872	      3.15136623	      6.66747656	     12.05292747	    -27.97577407	    -11.34816736	     52.30580745	     20.82931608	    -24.71445163	     -1.45313492	     78.85881662	      8.21959351	    -22.59826765	     -5.21388933	     -9.21960270	      4.68245939	    -12.41985454	      0.00000000	      2.34623135	      0.00000000	      7.74781436	      0.00000000	      0.00000000	    -12.46495200	     -0.27109879	      2.01175122	      0.00000000	     -2.87024652	      0.00000000	     11.45722759	      0.00000000	      0.00000000
      5.05000000	     -8.54669517	     10.70194174	    220.62055048	      2.45635653	      0.69197235	     -0.48213895	     42.95075858	    -30.24782011	     15.02208677	     26.89364343	      0.46938263	     68.88666137	     -2.77095319	     -9.56768622	    121.00361574	      2.11191150	    -39.96050877	      8.06958123	     -4.70717619	    -10.43360907	     14.33964791	     -4.70717619	      0.00000000	      0.00000000	      0.00000000	      0.00000000	      0.00000000	      0.00000000	      0.93926626	      1.08296845	    -24.04742285	    -29.91017386	    -34.01069669	      1.64695924	      4.60444797	     13.03975063	    -26.72469094	     -9.64025790	     55.35935605	     20.83492621	    -26.89073035	     -2.58179455	     76.77701366	      8.99683959	    -21.97804478	     -5.89714387	    -10.84848711	      5.21823399	    -12.85394381	      0.00000000	      2.13770063	      0.00000000	      7.91526075	      0.00000000	      0.00000000	    -14.13186654	      1.82458421	      2.45221210	      0.00000000	     -0.46196044	      0.00000000	      9.95490594	      0.00000000	      0.00000000
      5.05500000	     -8.76349861	      9.81957658	    221.60718251	      2.43463970	      0.69174803	     -0.47713631	     40.07167981	    -31.02870711	     14.73650106	     25.50147657	      0.44508473	     67.94353866	     -3.49236087	     -9.24178426	    122.35552758	      2.13550681	    -39.67526320	      7.86025502	     -5.07127169	    -11.35183692	     14.53326909	     -5.07127169	      0.00000000	      0.00000000	      0.00000000	      0.00000000	      0.00000000	      0.00000000	      0.73070239	      0.56519351	    -23.85414659	    -30.06177707	    -34.09677242	      1.67280407	      3.53864828	     12.04248134	    -26.28238926	     -9.46111471	     55.69992866	     20.85053626	    -26.94682084	     -2.67127217	     75.70212380	      8.94234569	    -21.97134190	     -5.78420948	    -13.22944787	      6.32729771	    -13.05475397	      0.00000000	      2.78243433	      0.00000000	      7.73922925	      0.00000000	      0.00000000	    -16.46153409	      2.68963803	      3.18811844	      0.00000000	      0.37521571	      0.00000000	      9.75304633	      0.00000000	      0.00000000
      5.06000000	     -9.78858810	      8.76400935	    223.11928745	      2.41292233	      0.69249968	     -0.47145263	     35.90710338	    -31.74867766	     13.89947306	     24.37726403	      0.42546352	     66.24528259	     -4.00492197	     -8.05601551	    123.71353703	      2.15920855	    -39.54791529	      7.55856282	     -5.28367980	    -13.10347106	     15.55063235	     -5.28367980	      0.00000000	      0.00000000	      0.00000000	      0.00000000	      0.00000000	      0.00000000	      0.29676393	     -0.16260067	    -23.84874513	    -30.83981452	    -34.38466204	      1.51073126	      2.06624792	     11.81396385	    -25.62735023	     -9.68975771	     56.52417688	     20.92772657	    -27.16302474	     -2.96807571	     74.54265580	      8.82552617	    -22.05057951	     -5.66467584	    -14.57644998	      8.49133953	    -14.01680988	      0.00000000	      5.45646753	      0.00000000	      7.42708178	      0.00000000	      0.00000000	    -17.98961220	      5.06586905	      4.06494574	      0.00000000	      2.54195283	      0.00000000	      9.26174115	      0.00000000	      0.00000000
